<?xml version="1.0" encoding="UTF-8" standalone="no" ?>
<!DOCTYPE svg PUBLIC "-//W3C//DTD SVG 1.1//EN" "http://www.w3.org/Graphics/SVG/1.1/DTD/svg11.dtd">
<svg xmlns="http://www.w3.org/2000/svg" xmlns:xlink="http://www.w3.org/1999/xlink" version="1.1" width="500" height="500" viewBox="0 0 500 500" xml:space="preserve">
<desc>Created with Fabric.js 4.6.0</desc>
<defs>
</defs>
<g transform="matrix(1 0 0 1 233.45 65.62)" id="ALWjkcsIFcFQbF55BygSQ"  >
<path style="stroke: rgb(125,119,119); stroke-width: 1; stroke-dasharray: none; stroke-linecap: butt; stroke-dashoffset: 0; stroke-linejoin: miter; stroke-miterlimit: 4; fill: rgb(255,255,255); fill-opacity: 0; fill-rule: nonzero; opacity: 1;" vector-effect="non-scaling-stroke"  transform=" translate(0, 0)" d="M 0 0" stroke-linecap="round" />
</g>
<g transform="matrix(0.98 0 0 0.98 173.78 227.21)" id="rRcYYd5V39dEi1Q12JJqz"  >
<path style="stroke: rgb(125,119,119); stroke-width: 1; stroke-dasharray: none; stroke-linecap: butt; stroke-dashoffset: 0; stroke-linejoin: miter; stroke-miterlimit: 4; fill: rgb(252,166,31); fill-rule: nonzero; opacity: 1;" vector-effect="non-scaling-stroke"  transform=" translate(0, 0)" d="M -62.90584 142.26419 L 41.801950000000005 -145.07347000000001 L 62.90585 -158.49796 L -52.35388999999999 158.49796 z" stroke-linecap="round" />
</g>
<g transform="matrix(0.98 0 0 0.98 270 151.57)" id="tJacWFLEG0VXe-mngtbui"  >
<path style="stroke: rgb(125,119,119); stroke-width: 1; stroke-dasharray: none; stroke-linecap: butt; stroke-dashoffset: 0; stroke-linejoin: miter; stroke-miterlimit: 4; fill: rgb(255,255,255); fill-opacity: 0; fill-rule: nonzero; opacity: 1;" vector-effect="non-scaling-stroke"  transform=" translate(0, 0)" d="M 0 0" stroke-linecap="round" />
</g>
<g transform="matrix(0.98 0 0 0.98 277.99 196.28)" id="RDPXSTM-kSitVx8FTYPNd"  >
<path style="stroke: rgb(125,119,119); stroke-width: 1; stroke-dasharray: none; stroke-linecap: butt; stroke-dashoffset: 0; stroke-linejoin: miter; stroke-miterlimit: 4; fill: rgb(252,166,31); fill-rule: nonzero; opacity: 1;" vector-effect="non-scaling-stroke"  transform=" translate(0, 0)" d="M -8.61688 -50.32468 L 21.103900000000003 50.32467 L -4.058439999999997 50.32467 L -21.103889999999996 -0.8116900000000058 z" stroke-linecap="round" />
</g>
<g transform="matrix(0.98 0 0 0.98 312.32 323.25)" id="FvCsnbDgxSlSusevDruJb"  >
<path style="stroke: rgb(125,119,119); stroke-width: 1; stroke-dasharray: none; stroke-linecap: butt; stroke-dashoffset: 0; stroke-linejoin: miter; stroke-miterlimit: 4; fill: rgb(252,166,31); fill-rule: nonzero; opacity: 1;" vector-effect="non-scaling-stroke"  transform=" translate(0, 0)" d="M 1.1684 -26.78571 L 19.48052 26.785719999999998 L -7.305190000000003 13.798709999999998 L -19.480510000000002 -26.78571 z" stroke-linecap="round" />
</g>
<g transform="matrix(0.98 0 0 0.98 308.2 210.19)" id="Bal3DPFsCFyJ-BjYSFtwP"  >
<path style="stroke: rgb(125,119,119); stroke-width: 1; stroke-dasharray: none; stroke-linecap: butt; stroke-dashoffset: 0; stroke-linejoin: miter; stroke-miterlimit: 4; fill: rgb(255,255,255); fill-opacity: 0; fill-rule: nonzero; opacity: 1;" vector-effect="non-scaling-stroke"  transform=" translate(0, 0)" d="M 24.18381 141.70663 C 76.13186 132.77805999999998 73.1968 133.90143999999998 73.1968 133.90143999999998 L -9.095410000000001 -135.57908000000003 L -73.22704 -141.70663000000005" stroke-linecap="round" />
</g>
<g transform="matrix(0.98 0 0 0.98 207.72 340.34)" id="wEu7_MOfVMliIJ_reQsGx"  >
<path style="stroke: rgb(125,119,119); stroke-width: 1; stroke-dasharray: none; stroke-linecap: butt; stroke-dashoffset: 0; stroke-linejoin: miter; stroke-miterlimit: 4; fill: rgb(255,255,255); fill-opacity: 0; fill-rule: nonzero; opacity: 1;" vector-effect="non-scaling-stroke"  transform=" translate(0, 0)" d="M -86.2371 43.9589 L -11.468949999999992 33.00308 L 12.425350000000009 -39.13617000000001 L 86.23709000000001 -43.95888000000001" stroke-linecap="round" />
</g>
<g transform="matrix(0.98 0 0 0.98 257.17 221.28)" id="ag2HLM9LDdZ1BiFR7zMuy"  >
<path style="stroke: rgb(125,119,119); stroke-width: 1; stroke-dasharray: none; stroke-linecap: butt; stroke-dashoffset: 0; stroke-linejoin: miter; stroke-miterlimit: 4; fill: rgb(255,255,255); fill-opacity: 0; fill-rule: nonzero; opacity: 1;" vector-effect="non-scaling-stroke"  transform=" translate(0, 0)" d="M -0.44693 -25.41234 L -16.992379999999997 25.41234 L 16.992380000000004 25.41234" stroke-linecap="round" />
</g>
</svg>