<?xml version="1.0" encoding="UTF-8" standalone="no" ?>
<!DOCTYPE svg PUBLIC "-//W3C//DTD SVG 1.1//EN" "http://www.w3.org/Graphics/SVG/1.1/DTD/svg11.dtd">
<svg xmlns="http://www.w3.org/2000/svg" xmlns:xlink="http://www.w3.org/1999/xlink" version="1.1" width="500" height="500" viewBox="0 0 500 500" xml:space="preserve">
<desc>Created with Fabric.js 4.6.0</desc>
<defs>
</defs>
<g transform="matrix(1 0 0 1 240.36 186.09)" id="iN-b0SgcJlhXo05hBGmsH"  >
<path style="stroke: rgb(0,0,0); stroke-width: 1; stroke-dasharray: none; stroke-linecap: round; stroke-dashoffset: 0; stroke-linejoin: round; stroke-miterlimit: 10; fill: none; fill-rule: nonzero; opacity: 1;" vector-effect="non-scaling-stroke"  transform=" translate(-240.36, -186.09)" d="M 240.35508308605338 186.08915376239514 L 240.3570830860534 186.08915376239514" stroke-linecap="round" />
</g>
<g transform="matrix(0.27 -1.7 1.76 0.28 268.4 238.01)" id="OgNwEj7UQDIuLbJvKY68m"  >
<path style="stroke: none; stroke-width: 0; stroke-dasharray: none; stroke-linecap: butt; stroke-dashoffset: 0; stroke-linejoin: miter; stroke-miterlimit: 4; fill: rgb(255,192,0); fill-rule: nonzero; opacity: 1;" vector-effect="non-scaling-stroke"  transform=" translate(0, 0)" d="M 92.14443 -110.15336 C 95.06349 -110.15336 99.62326 -109.08458 102.50978 -107.81649 C 110.26042000000001 -104.41152 117.76035 -98.4303 120.42859000000001 -89.28556 C 122.26424000000002 -82.99435 120.77146000000002 -74.49264000000001 119.70182000000001 -67.17932 C 117.25931000000001 -50.479350000000004 104.11497000000001 -31.534020000000005 104.11497000000001 -18.364510000000003 C 104.11497000000001 8.008609999999997 118.42949000000002 64.10784999999998 108.08883000000002 80.71717999999998 C 92.34568000000002 106.00408999999999 60.660260000000015 111.89738999999999 38.89164000000001 109.74562999999998 C 29.06917000000001 108.77470999999997 16.67197000000001 101.84741999999997 16.67197000000001 101.84741999999997 C 16.67197000000001 99.54455999999998 -121.22235999999998 25.492629999999977 -121.22235999999998 -59.382510000000025 C -121.22235999999998 -65.52141000000003 -120.85823999999998 -51.49400000000003 -121.22235999999998 -59.382510000000025 C -121.89239999999998 -73.89864000000003 -117.82944999999998 -87.01297000000002 -110.79456999999998 -93.00715000000002 C -107.22727999999998 -96.04671000000002 -88.87439999999998 -109.24516000000003 -67.57733999999998 -104.22747000000003 C -39.66227999999998 -97.65055000000002 -6.042929999999977 -77.54221000000003 0.9245400000000217 -77.54221000000003 C 29.645790000000023 -77.54221000000003 63.42318000000002 -110.15336000000002 92.14443000000003 -110.15336000000002 z" stroke-linecap="round" />
</g>
</svg>