<?xml version="1.0" encoding="UTF-8" standalone="no" ?>
<!DOCTYPE svg PUBLIC "-//W3C//DTD SVG 1.1//EN" "http://www.w3.org/Graphics/SVG/1.1/DTD/svg11.dtd">
<svg xmlns="http://www.w3.org/2000/svg" xmlns:xlink="http://www.w3.org/1999/xlink" version="1.1" width="500" height="500" viewBox="0 0 500 500" xml:space="preserve">
<desc>Created with Fabric.js 4.6.0</desc>
<defs>
</defs>
<g transform="matrix(1 0 0 1 240.36 186.09)" id="iN-b0SgcJlhXo05hBGmsH"  >
<path style="stroke: rgb(0,0,0); stroke-width: 1; stroke-dasharray: none; stroke-linecap: round; stroke-dashoffset: 0; stroke-linejoin: round; stroke-miterlimit: 10; fill: none; fill-rule: nonzero; opacity: 1;" vector-effect="non-scaling-stroke"  transform=" translate(-240.36, -186.09)" d="M 240.35508308605338 186.08915376239514 L 240.3570830860534 186.08915376239514" stroke-linecap="round" />
</g>
<g transform="matrix(0.16 -0.98 1.32 0.21 266.13 245.45)" id="OgNwEj7UQDIuLbJvKY68m"  >
<path style="stroke: none; stroke-width: 0; stroke-dasharray: none; stroke-linecap: butt; stroke-dashoffset: 0; stroke-linejoin: miter; stroke-miterlimit: 4; fill: rgb(255,192,0); fill-rule: nonzero; opacity: 1;" vector-effect="non-scaling-stroke"  transform=" translate(0, 0)" d="M 90.34152 -105.8994 C 93.26058 -105.8994 97.82035 -104.83062 100.70687000000001 -103.56253 C 108.45751000000001 -100.15755999999999 115.95744 -94.17634 118.62568000000002 -85.0316 C 120.46133000000002 -78.74038999999999 118.96855000000002 -70.23868 117.89891000000001 -62.92536 C 115.45640000000002 -46.22539 102.31206000000002 -27.28006 102.31206000000002 -14.110549999999996 C 102.31206000000002 12.262570000000004 116.62658000000002 68.36180999999999 106.28592000000002 84.97113999999999 C 83.43912000000002 121.66805 16.027160000000023 98.60437999999999 16.027160000000023 100.19147 L 16.027160000000023 100.19147 C 16.027160000000023 97.88861 -118.23842999999998 53.35959 -118.23842999999998 -31.515550000000005 C -118.23842999999998 -48.95102 -123.45533999999998 -79.50159000000001 -112.59747999999998 -88.75319 C -109.03018999999998 -91.79275 -90.67730999999998 -104.9912 -69.38024999999998 -99.97351 C -41.46518999999998 -93.39659 -7.845839999999974 -73.28825 -0.8783699999999754 -73.28825 C 27.842880000000026 -73.28825 61.620270000000026 -105.89940000000001 90.34152000000003 -105.89940000000001 z" stroke-linecap="round" />
</g>
</svg>