<?xml version="1.0" encoding="UTF-8" standalone="no" ?>
<!DOCTYPE svg PUBLIC "-//W3C//DTD SVG 1.1//EN" "http://www.w3.org/Graphics/SVG/1.1/DTD/svg11.dtd">
<svg xmlns="http://www.w3.org/2000/svg" xmlns:xlink="http://www.w3.org/1999/xlink" version="1.1" width="500" height="500" viewBox="0 0 500 500" xml:space="preserve">
<desc>Created with Fabric.js 4.6.0</desc>
<defs>
</defs>
<g transform="matrix(1 0 0 1 240.36 186.09)" id="iN-b0SgcJlhXo05hBGmsH"  >
<path style="stroke: rgb(0,0,0); stroke-width: 1; stroke-dasharray: none; stroke-linecap: round; stroke-dashoffset: 0; stroke-linejoin: round; stroke-miterlimit: 10; fill: none; fill-rule: nonzero; opacity: 1;" vector-effect="non-scaling-stroke"  transform=" translate(-240.36, -186.09)" d="M 240.35508308605338 186.08915376239514 L 240.3570830860534 186.08915376239514" stroke-linecap="round" />
</g>
<g transform="matrix(0.27 -1.7 1.77 0.28 263.02 255.45)" id="OgNwEj7UQDIuLbJvKY68m"  >
<path style="stroke: none; stroke-width: 0; stroke-dasharray: none; stroke-linecap: butt; stroke-dashoffset: 0; stroke-linejoin: miter; stroke-miterlimit: 4; fill: rgb(255,192,0); fill-rule: nonzero; opacity: 1;" vector-effect="non-scaling-stroke"  transform=" translate(0, 0)" d="M 84.57005 -121.95364 C 87.48911 -121.95364 92.04888 -120.88485999999999 94.93539999999999 -119.61676999999999 C 102.68603999999999 -116.21179999999998 110.18596999999998 -110.23057999999999 112.85421 -101.08583999999999 C 114.68986 -94.79462999999998 113.19708 -86.29292 112.12743999999999 -78.97959999999999 C 109.68493 -62.27962999999999 103.25913 -43.13465999999999 103.25913 -29.965149999999994 C 103.25913 -3.592029999999994 130.78947 58.008520000000004 120.44882 74.61786000000001 C 104.70567 99.90477000000001 72.74467 110.99098000000001 60.999489999999994 113.81938000000001 C 43.26930999999999 118.08905000000001 23.390019999999993 119.54319000000001 23.390019999999993 119.54319000000001 C 23.390019999999993 118.32032000000001 -29.473630000000007 133.3339 -65.94517 100.7698 C -78.01862 89.98986000000001 -92.31489 73.13990000000001 -96.43201 43.685810000000004 C -101.75972 5.571070000000006 -111.50747000000001 -43.49717 -114.58921000000001 -66.47108 C -114.80279 -68.06332 -117.64574 -75.83376 -121.73624000000001 -86.64137 C -125.00626000000001 -95.28116999999999 -119.51101000000001 -109.10249999999999 -119.26214000000002 -109.31455 C -117.53301000000002 -110.78788 -111.60907000000002 -117.33975 -102.25871000000001 -119.53877 C -92.31875000000001 -121.87645 -86.12573 -118.61327 -75.15173000000001 -116.02774 C -47.23667000000002 -109.45082 -13.617320000000014 -89.34248 -6.649850000000015 -89.34248 C 22.071399999999986 -89.34248 55.84878999999999 -121.95363 84.57003999999999 -121.95363 z" stroke-linecap="round" />
</g>
</svg>