<?xml version="1.0" encoding="UTF-8" standalone="no" ?>
<!DOCTYPE svg PUBLIC "-//W3C//DTD SVG 1.1//EN" "http://www.w3.org/Graphics/SVG/1.1/DTD/svg11.dtd">
<svg xmlns="http://www.w3.org/2000/svg" xmlns:xlink="http://www.w3.org/1999/xlink" version="1.1" width="500" height="500" viewBox="0 0 500 500" xml:space="preserve">
<desc>Created with Fabric.js 4.6.0</desc>
<defs>
</defs>
<g transform="matrix(1 0 0 1 240.36 186.09)" id="iN-b0SgcJlhXo05hBGmsH"  >
<path style="stroke: rgb(0,0,0); stroke-width: 1; stroke-dasharray: none; stroke-linecap: round; stroke-dashoffset: 0; stroke-linejoin: round; stroke-miterlimit: 10; fill: none; fill-rule: nonzero; opacity: 1;" vector-effect="non-scaling-stroke"  transform=" translate(-240.36, -186.09)" d="M 240.35508308605338 186.08915376239514 L 240.3570830860534 186.08915376239514" stroke-linecap="round" />
</g>
<g transform="matrix(0.27 -1.7 1.77 0.28 257.43 256.3)" id="OgNwEj7UQDIuLbJvKY68m"  >
<path style="stroke: none; stroke-width: 0; stroke-dasharray: none; stroke-linecap: butt; stroke-dashoffset: 0; stroke-linejoin: miter; stroke-miterlimit: 4; fill: rgb(255,192,0); fill-rule: nonzero; opacity: 1;" vector-effect="non-scaling-stroke"  transform=" translate(0, 0)" d="M 82.76931 -118.54013 C 85.68837 -118.54013 90.24814 -117.47135 93.13466 -116.20326 C 100.8853 -112.79829 108.38522999999999 -106.81707 111.05347 -97.67233 C 112.88912 -91.38112 111.39634000000001 -82.87941000000001 110.3267 -75.56609 C 107.88419 -58.86612 101.45839000000001 -39.72115 101.45839000000001 -26.551640000000006 C 101.45839000000001 -0.178520000000006 128.98873 61.42202999999999 118.64808000000001 78.03137 C 102.90493000000001 103.31827999999999 70.94393000000001 114.40449 59.198750000000004 117.23289 C 41.46857 121.50256 8.753760000000007 113.94631 8.753760000000007 113.94631 C 8.753760000000007 112.72344 -48.57945999999999 118.72115 -85.05100999999999 86.15704 C -97.12445999999998 75.3771 -98.7665 48.337309999999995 -102.88360999999999 18.883219999999994 C -109.75035999999999 -30.241940000000007 -124.56765999999999 -97.64657000000001 -120.16967999999999 -101.39393000000001 C -116.60238999999999 -104.43349 -98.24950999999999 -117.63194000000001 -76.95244999999998 -112.61425000000001 C -49.03738999999999 -106.03733000000001 -15.418039999999984 -85.92899000000001 -8.450569999999985 -85.92899000000001 C 20.270680000000016 -85.92899000000001 54.04807000000002 -118.54014000000001 82.76932000000002 -118.54014000000001 z" stroke-linecap="round" />
</g>
</svg>