<?xml version="1.0" encoding="UTF-8" standalone="no" ?>
<!DOCTYPE svg PUBLIC "-//W3C//DTD SVG 1.1//EN" "http://www.w3.org/Graphics/SVG/1.1/DTD/svg11.dtd">
<svg xmlns="http://www.w3.org/2000/svg" xmlns:xlink="http://www.w3.org/1999/xlink" version="1.1" width="500" height="500" viewBox="0 0 500 500" xml:space="preserve">
<desc>Created with Fabric.js 4.6.0</desc>
<defs>
</defs>
<g transform="matrix(1 0 0 1 240.36 186.09)" id="iN-b0SgcJlhXo05hBGmsH"  >
<path style="stroke: rgb(0,0,0); stroke-width: 1; stroke-dasharray: none; stroke-linecap: round; stroke-dashoffset: 0; stroke-linejoin: round; stroke-miterlimit: 10; fill: none; fill-rule: nonzero; opacity: 1;" vector-effect="non-scaling-stroke"  transform=" translate(-240.36, -186.09)" d="M 240.35508308605338 186.08915376239514 L 240.3570830860534 186.08915376239514" stroke-linecap="round" />
</g>
<g transform="matrix(0.27 -1.7 1.77 0.28 256.15 250)" id="OgNwEj7UQDIuLbJvKY68m"  >
<path style="stroke: none; stroke-width: 0; stroke-dasharray: none; stroke-linecap: butt; stroke-dashoffset: 0; stroke-linejoin: miter; stroke-miterlimit: 4; fill: rgb(255,192,0); fill-rule: nonzero; opacity: 1;" vector-effect="non-scaling-stroke"  transform=" translate(0, 0)" d="M 77.74057 -122.51638 C 80.65963 -122.51638 85.21940000000001 -121.4476 88.10592 -120.17951 C 95.85656 -116.77453999999999 103.35649 -110.79332 106.02473 -101.64858 C 107.86038 -95.35736999999999 106.36760000000001 -86.85566 105.29796 -79.54234 C 102.85545 -62.842369999999995 96.42965000000001 -43.697399999999995 96.42965000000001 -30.52789 C 96.42965000000001 -4.154769999999999 141.55205 17.58056 131.21140000000003 34.189899999999994 C 115.46825000000003 59.47680999999999 66.08125000000003 118.20783 54.33607000000002 121.03622999999999 C 36.60589000000002 125.3059 16.560540000000017 118.98044999999999 16.560540000000017 118.98044999999999 C 16.560540000000017 117.75757999999999 -29.933999999999983 113.43745999999999 -66.40553999999999 80.87335999999999 C -67.70924 79.70933 -68.86878999999999 80.01333 -70.30039999999998 79.04773999999999 C -82.12678999999999 71.07108 -97.62753999999998 66.80261999999999 -101.30007999999998 40.52901999999999 C -106.62778999999998 2.414279999999991 -116.00641999999998 -44.41459000000002 -119.08815999999999 -67.38850000000001 C -119.30173999999998 -68.98074000000001 -127.90122 -79.78947000000001 -131.99173 -90.59708 C -135.26174999999998 -99.23688 -126.93104999999998 -113.24823 -126.68218999999999 -113.46028000000001 C -124.95306 -114.93361000000002 -118.43852999999999 -117.90249000000001 -109.08816999999999 -120.10151000000002 C -99.14820999999999 -122.43919000000002 -89.12504999999999 -113.33139000000001 -78.15105 -110.74586000000002 C -50.23599 -104.16894000000002 -20.446779999999997 -89.90522000000001 -13.479309999999998 -89.90522000000001 C 15.241940000000003 -89.90522000000001 49.019330000000004 -122.51637000000002 77.74058000000001 -122.51637000000002 z" stroke-linecap="round" />
</g>
</svg>