<?xml version="1.0" encoding="UTF-8" standalone="no" ?>
<!DOCTYPE svg PUBLIC "-//W3C//DTD SVG 1.1//EN" "http://www.w3.org/Graphics/SVG/1.1/DTD/svg11.dtd">
<svg xmlns="http://www.w3.org/2000/svg" xmlns:xlink="http://www.w3.org/1999/xlink" version="1.1" width="500" height="500" viewBox="0 0 500 500" xml:space="preserve">
<desc>Created with Fabric.js 4.6.0</desc>
<defs>
</defs>
<g transform="matrix(1 0 0 1 240.36 186.09)" id="iN-b0SgcJlhXo05hBGmsH"  >
<path style="stroke: rgb(0,0,0); stroke-width: 1; stroke-dasharray: none; stroke-linecap: round; stroke-dashoffset: 0; stroke-linejoin: round; stroke-miterlimit: 10; fill: none; fill-rule: nonzero; opacity: 1;" vector-effect="non-scaling-stroke"  transform=" translate(-240.36, -186.09)" d="M 240.35508308605338 186.08915376239514 L 240.3570830860534 186.08915376239514" stroke-linecap="round" />
</g>
<g transform="matrix(0.27 -1.7 1.77 0.28 242.15 228.83)" id="OgNwEj7UQDIuLbJvKY68m"  >
<path style="stroke: none; stroke-width: 0; stroke-dasharray: none; stroke-linecap: butt; stroke-dashoffset: 0; stroke-linejoin: miter; stroke-miterlimit: 4; fill: rgb(255,192,0); fill-rule: nonzero; opacity: 1;" vector-effect="non-scaling-stroke"  transform=" translate(0, 0)" d="M 91.86273 -129.04831 C 93.51877999999999 -129.04831 100.80799999999999 -126.11885999999998 102.48173 -119.59266999999998 C 103.75822 -114.61537999999999 94.98452999999999 -80.32374999999999 93.91489 -73.01041999999998 C 91.47238 -56.31044999999998 85.04658 -37.16547999999998 85.04658 -23.995969999999986 C 85.04658 2.3771500000000145 150.43135 68.77614000000001 140.09069 85.38547000000001 C 124.34754 110.67238 54.69816999999999 124.73975000000002 42.95299 127.56815 C 25.22281 131.83782 5.177459999999996 125.51237 5.177459999999996 125.51237 C 5.177459999999996 124.2895 -42.641560000000005 120.63006 -79.11311 88.06596 C -80.41681000000001 86.90193000000001 -95.82749000000001 77.91699 -101.98069000000001 71.47559000000001 C -106.99791 66.22337000000002 -111.03364 58.86179000000001 -112.68317 47.06094000000001 C -118.01088 8.946200000000012 -127.38951 -37.88267 -130.47125 -60.85657999999999 C -130.58874 -61.73247999999999 -148.12894 -95.37036999999998 -138.10899 -107.19353999999998 C -129.91443 -116.86281999999999 -94.47126 -105.37713999999998 -89.53414000000001 -104.21392999999999 C -61.61908000000001 -97.63700999999999 -31.829870000000007 -83.37329 -24.862400000000008 -83.37329 C 3.8588499999999932 -83.37329 63.14147 -129.04829 91.86272 -129.04829 z" stroke-linecap="round" />
</g>
</svg>