<?xml version="1.0" encoding="UTF-8" standalone="no" ?>
<!DOCTYPE svg PUBLIC "-//W3C//DTD SVG 1.1//EN" "http://www.w3.org/Graphics/SVG/1.1/DTD/svg11.dtd">
<svg xmlns="http://www.w3.org/2000/svg" xmlns:xlink="http://www.w3.org/1999/xlink" version="1.1" width="500" height="500" viewBox="0 0 500 500" xml:space="preserve">
<desc>Created with Fabric.js 4.6.0</desc>
<defs>
</defs>
<g transform="matrix(1 0 0 1 240.36 186.09)" id="iN-b0SgcJlhXo05hBGmsH"  >
<path style="stroke: rgb(0,0,0); stroke-width: 1; stroke-dasharray: none; stroke-linecap: round; stroke-dashoffset: 0; stroke-linejoin: round; stroke-miterlimit: 10; fill: none; fill-rule: nonzero; opacity: 1;" vector-effect="non-scaling-stroke"  transform=" translate(-240.36, -186.09)" d="M 240.35508308605338 186.08915376239514 L 240.3570830860534 186.08915376239514" stroke-linecap="round" />
</g>
<g transform="matrix(0.27 -1.7 1.76 0.28 259.07 263.65)" id="OgNwEj7UQDIuLbJvKY68m"  >
<path style="stroke: none; stroke-width: 0; stroke-dasharray: none; stroke-linecap: butt; stroke-dashoffset: 0; stroke-linejoin: miter; stroke-miterlimit: 4; fill: rgb(255,192,0); fill-rule: nonzero; opacity: 1;" vector-effect="non-scaling-stroke"  transform=" translate(0, 0)" d="M 87.61829 -118.54013 C 90.53735 -118.54013 95.09712 -117.47135 97.98364000000001 -116.20326 C 105.73428000000001 -112.79829 113.23421 -106.81707 115.90245000000002 -97.67233 C 117.73810000000002 -91.38112 116.24532000000002 -82.87941000000001 115.17568000000001 -75.56609 C 112.73317000000002 -58.86612 106.30737000000002 -39.72115 106.30737000000002 -26.551640000000006 C 106.30737000000002 -0.178520000000006 133.83771000000002 61.42202999999999 123.49706000000002 78.03137 C 107.75391000000002 103.31827999999999 75.79291000000002 114.40449 64.04773000000002 117.23289 C 46.31755000000001 121.50256 13.602740000000018 113.94631 13.602740000000018 113.94631 C 13.602740000000018 112.72344 -38.15051999999998 100.13522999999999 -74.62206999999998 67.57112 C -106.83227999999997 38.811809999999994 -125.74849999999998 -27.964740000000006 -125.74849999999998 -67.76929 C -125.74849999999998 -73.90818999999999 -125.38437999999998 -59.88078 -125.74849999999998 -67.76929 C -126.41853999999998 -82.28542 -122.35558999999998 -95.39975 -115.32070999999998 -101.39393 C -111.75341999999998 -104.43348999999999 -93.40053999999998 -117.63194 -72.10347999999998 -112.61425 C -44.18841999999998 -106.03733 -10.569069999999975 -85.92899 -3.6015999999999764 -85.92899 C 25.119650000000025 -85.92899 58.897040000000025 -118.54014000000001 87.61829000000003 -118.54014000000001 z" stroke-linecap="round" />
</g>
</svg>